<svg id="Layer_5" enable-background="new 0 0 64 64" height="512" viewBox="0 0 64 64" width="512" xmlns="http://www.w3.org/2000/svg"><path d="m44 2 2 6h-38l2-6z" fill="#fcd770"/><path d="m50 9v2c0 .55-.45 1-1 1h-1-42-1c-.55 0-1-.45-1-1v-2c0-.55.45-1 1-1h3 38 3c.55 0 1 .45 1 1z" fill="#e6e9ed"/><path d="m6 32h41c-3.94 0-7.52 1.52-10.19 4h-32.81-1c-.55 0-1-.45-1-1v-2c0-.55.45-1 1-1z" fill="#e6e9ed"/><path d="m48 12v20.03.01c-.33-.03-.66-.04-1-.04h-41v-20z" fill="#b4dd7f"/><path d="m12 16v6 6h6 6v-6-6h-6z" fill="#69d6f4"/><path d="m36 16h-6v6 6h6 6v-6-6z" fill="#69d6f4"/><path d="m47 62h-14v-9.6c2.17 5.61 7.62 9.6 14 9.6z" fill="#b4dd7f"/><path d="m14 40h6 6 7.73c.8-1.5 1.84-2.85 3.08-4h-32.81v26h4 9v-12h8 7.3c-.2-.97-.3-1.97-.3-3 0-.34.01-.67.04-1h-.01-6.03-6-6-6v-6z" fill="#b4dd7f"/><path d="m32.3 50h-7.3-8v12h8 8v-9.6c-.3-.77-.53-1.57-.7-2.4z" fill="#69d6f4"/><path d="m26 40h-6-6-6v6h6 6 6 6.03.01c.14-2.16.73-4.19 1.69-6z" fill="#69d6f4"/><path d="m47 32c.34 0 .67.01 1 .04 7.82.51 14 7.02 14 14.96 0 8.28-6.72 15-15 15-6.38 0-11.83-3.99-14-9.6-.3-.77-.53-1.57-.7-2.4-.2-.97-.3-1.97-.3-3 0-.34.01-.67.04-1 .14-2.16.73-4.19 1.69-6 .8-1.5 1.84-2.85 3.08-4 2.67-2.48 6.25-4 10.19-4zm11 15c0-2.27-.69-4.38-1.87-6.13-.79-1.19-1.81-2.21-3-3-1.75-1.18-3.86-1.87-6.13-1.87-6.08 0-11 4.92-11 11 0 2.27.69 4.38 1.87 6.13.79 1.19 1.81 2.21 3 3 1.75 1.18 3.86 1.87 6.13 1.87 6.08 0 11-4.92 11-11z" fill="#ff826e"/><path d="m53.13 37.87-15.26 15.26c-1.18-1.75-1.87-3.86-1.87-6.13 0-6.08 4.92-11 11-11 2.27 0 4.38.69 6.13 1.87z" fill="#e6e9ed"/><path d="m56.13 40.87c1.18 1.75 1.87 3.86 1.87 6.13 0 6.08-4.92 11-11 11-2.27 0-4.38-.69-6.13-1.87z" fill="#e6e9ed"/><path d="m56.13 40.87-15.26 15.26c-1.19-.79-2.21-1.81-3-3l15.26-15.26c1.19.79 2.21 1.81 3 3z" fill="#ff826e"/><path d="m49 31.139v-18.139c1.103 0 2-.897 2-2v-2c0-1.103-.897-2-2-2h-2.28l-2-6h-35.441l-2 6h-2.279c-1.103 0-2 .897-2 2v2c0 1.103.897 2 2 2v18h-2c-1.103 0-2 .897-2 2v2c0 1.103.897 2 2 2v26h44c8.822 0 16-7.178 16-16 0-8.144-6.12-14.872-14-15.861zm-38.279-28.139h32.559l1.334 4h-35.227zm-5.721 6h44l.001 2h-44.001zm2 4h40v18h-40zm-4 20h36.271c-1.015.562-1.954 1.239-2.819 2h-33.452zm2 4h29.53c-.505.629-.958 1.299-1.365 2h-26.165v8h24c0 .679.056 1.343.139 2h-15.139v12h-11zm21 14h5.527c.133.516.291 1.02.473 1.515v8.485h-6zm-2 10h-6v-10h6zm7.139-16h-4.139v-4h5.178c-.513 1.262-.864 2.603-1.039 4zm-22.139 0v-4h4v4zm6-4h4v4h-4zm6 0h4v4h-4zm13 20v-4.708c1.385 1.933 3.181 3.55 5.271 4.708zm13 0c-7.72 0-14-6.28-14-14s6.28-14 14-14 14 6.28 14 14-6.28 14-14 14z"/><path d="m47 35c-6.617 0-12 5.383-12 12s5.383 12 12 12 12-5.383 12-12-5.383-12-12-12zm0 2c1.621 0 3.147.396 4.503 1.083l-13.42 13.42c-.687-1.356-1.083-2.882-1.083-4.503 0-5.514 4.486-10 10-10zm-7.812 16.226 14.038-14.038c.586.468 1.118 1 1.586 1.586l-14.038 14.038c-.586-.468-1.118-1-1.586-1.586zm7.812 3.774c-1.621 0-3.147-.396-4.503-1.083l13.419-13.419c.688 1.355 1.084 2.881 1.084 4.502 0 5.514-4.486 10-10 10z"/><path d="m29 29h14v-14h-14zm2-6h4v4h-4zm6 4v-4h4v4zm4-6h-4v-4h4zm-6-4v4h-4v-4z"/><path d="m11 29h14v-14h-14zm2-6h4v4h-4zm6 4v-4h4v4zm4-6h-4v-4h4zm-6-4v4h-4v-4z"/><path d="m7 49h2v2h-2z"/><path d="m7 57h2v2h-2z"/><path d="m7 53h2v2h-2z"/></svg>