<svg height="512pt" viewBox="0 -1 512 512" width="512pt" xmlns="http://www.w3.org/2000/svg"><path d="m363.78125 55.535156c4.171875 0 7.558594-3.386718 7.558594-7.554687 0-4.171875-3.386719-7.558594-7.558594-7.558594h-44.320312c-4.171876 0-7.554688 3.386719-7.554688 7.558594 0 4.167969 3.382812 7.554687 7.554688 7.554687zm0 0"/><path d="m289.242188 40.421875h-141.023438c-4.171875 0-7.558594 3.386719-7.558594 7.558594 0 4.167969 3.386719 7.554687 7.558594 7.554687h141.023438c4.167968 0 7.554687-3.386718 7.554687-7.554687 0-4.171875-3.386719-7.558594-7.554687-7.558594zm0 0"/><path d="m148.21875 92.804688h84.613281c4.171875 0 7.554688-3.386719 7.554688-7.554688 0-4.171875-3.382813-7.554688-7.554688-7.554688h-84.613281c-4.171875 0-7.558594 3.382813-7.558594 7.554688 0 4.167969 3.386719 7.554688 7.558594 7.554688zm0 0"/><path d="m255.496094 85.25c0 4.167969 3.386718 7.554688 7.554687 7.554688h100.730469c4.171875 0 7.558594-3.386719 7.558594-7.554688 0-4.171875-3.386719-7.554688-7.558594-7.554688h-100.730469c-4.167969 0-7.554687 3.382813-7.554687 7.554688zm0 0"/><path d="m507.6875 226.214844-86.195312-41.019532v-167.566406c0-9.722656-7.90625-17.628906-17.628907-17.628906h-295.726562c-9.722657 0-17.628907 7.90625-17.628907 17.628906v51.925782c0 4.179687 3.382813 7.554687 7.554688 7.554687s7.554688-3.375 7.554688-7.554687v-51.925782c0-1.390625 1.128906-2.519531 2.519531-2.519531h295.726562c1.390625 0 2.519531 1.128906 2.519531 2.519531v253.703125c-.90625.433594-4.683593 2.234375-10.488281 4.996094 0-10.34375 0-93.640625 0-103.816406 0-10.714844-8.730469-19.449219-19.449219-19.449219h-44.714843v-13.832031c0-16.992188-13.820313-30.8125-30.8125-30.8125h-89.835938c-16.992187 0-30.8125 13.820312-30.8125 30.8125v13.832031h-44.714843c-10.71875 0-19.449219 8.734375-19.449219 19.449219v103.804687c-5.804688-2.757812-9.582031-4.550781-10.488281-4.984375v-171.558593c0-4.167969-3.382813-7.554688-7.554688-7.554688s-7.554688 3.386719-7.554688 7.554688v85.421874l-86.195312 41.019532c-2.640625 1.246094-4.3125 3.90625-4.3125 6.816406v262.882812c0 8.058594 6.558594 14.605469 14.605469 14.605469h141.023437c4.171875 0 7.558594-3.375 7.558594-7.554687 0-4.171875-3.386719-7.554688-7.558594-7.554688h-130.585937c44.980469-47.808594 155.234375-165 159.667969-169.714844l58.949218 28.054688c12.191406 5.804688 14.570313 4.824219 24.699219 0l58.929687-28.042969c49.722657 52.839844 18.75 19.933594 54.050782 57.445313 1.480468 1.574218 3.484375 2.378906 5.5 2.378906 6.578125 0 10.042968-7.90625 5.5-12.734375-19.5625-20.789063-13.765625-14.628906-50.71875-53.910156 113.988281-54.238281 20.1875-9.621094 155.269531-73.898438v238.925781l-83.839844-89.105468c-2.859375-3.042969-7.644531-3.191406-10.675781-.332032-3.042969 2.859376-3.183594 7.644532-.332031 10.675782l84.914062 90.257812h-301.105469c-4.179687 0-7.554687 3.382813-7.554687 7.554688 0 4.179687 3.375 7.554687 7.554687 7.554687h311.542969c8.046875 0 14.605469-6.546875 14.605469-14.605469v-262.882812c0-2.910156-1.671875-5.570312-4.3125-6.816406zm-312.308594-86.984375c0-8.660157 7.042969-15.703125 15.703125-15.703125h89.835938c8.660156 0 15.703125 7.042968 15.703125 15.703125v13.832031h-121.242188zm-104.871094 62.695312v62.214844l-65.363281-31.109375zm-75.398437 281.988281v-238.925781c149.101563 70.960938 135.867187 64.65625 155.269531 73.886719-38.546875 40.964844-9.449218 10.035156-155.269531 165.039062zm365.675781-200.402343c-41.257812 19.640625-118.027344 56.167969-123.386718 58.714843-.882813.421876-1.914063.421876-2.796876 0-5.390624-2.570312-82.136718-39.085937-123.386718-58.714843v-37.421875c7.460937 8.1875 17.222656 14.242187 28.265625 17.113281v13.265625c0 7.402344 6.023437 13.425781 13.4375 13.425781h15.511719c7.402343 0 13.425781-6.023437 13.425781-13.425781v-11.414062h108.289062v11.414062c0 7.402344 6.011719 13.425781 13.425781 13.425781h15.523438c7.402344 0 13.425781-6.023437 13.425781-13.425781v-13.265625c11.042969-2.871094 20.804688-8.925781 28.265625-17.113281zm-194.039062-18.457031v9.730468h-12.15625v-9.730468zm-12.15625-15.109376v-10.082031h12.15625v10.082031zm162.820312 15.109376v9.730468h-12.15625v-9.730468zm-12.15625-15.109376v-10.082031h12.15625v10.082031zm55.53125-42.839843c0 18.515625-11.792968 34.320312-28.265625 40.292969v-9.21875c0-7.402344-6.023437-13.425782-13.425781-13.425782h-15.523438c-7.414062 0-13.425781 6.023438-13.425781 13.425782v11.765624h-108.289062v-11.765624c0-7.402344-6.023438-13.425782-13.425781-13.425782h-15.511719c-7.414063 0-13.4375 6.023438-13.4375 13.425782v9.21875c-16.472657-5.972657-28.265625-21.777344-28.265625-40.292969v-34.59375c0-2.386719 1.953125-4.339844 4.339844-4.339844h240.890624c2.386719 0 4.339844 1.953125 4.339844 4.339844zm40.707032 57.035156v-62.214844l65.375 31.105469zm0 0"/></svg>