<?xml version="1.0"?>
<svg xmlns="http://www.w3.org/2000/svg" viewBox="0 0 512 512" width="512" height="512"><g id="Hired"><path d="M464,416H440V399.979A39.963,39.963,0,0,0,456,368V344a40,40,0,0,0-80,0v24a39.963,39.963,0,0,0,16,31.979V416H368a39.947,39.947,0,0,0-14.017,2.535A40,40,0,0,0,320,399.6H280V384.542A48.014,48.014,0,0,0,304,343V313a48,48,0,0,0-96,0v30a48.014,48.014,0,0,0,24,41.542V399.6H192a40,40,0,0,0-33.983,18.935A39.947,39.947,0,0,0,144,416H120V399.979A39.963,39.963,0,0,0,136,368V344a40,40,0,0,0-80,0v24a39.963,39.963,0,0,0,16,31.979V416H48A40.045,40.045,0,0,0,8,456v32a8,8,0,0,0,8,8H496a8,8,0,0,0,8-8V456A40.045,40.045,0,0,0,464,416ZM224,313a32,32,0,0,1,64,0v30a32,32,0,0,1-64,0Zm40,78v8H248v-8Zm128-47a24,24,0,0,1,48,0v24a24,24,0,0,1-48,0Zm16,64h16v8H408Zm-216,7.6H320a24.027,24.027,0,0,1,24,24v39.8H328V464a8,8,0,0,0-16,0v15.4H199V464a8,8,0,0,0-16,0v15.4H168V439.6A24.027,24.027,0,0,1,192,415.6ZM72,344a24,24,0,0,1,48,0v24a24,24,0,0,1-48,0Zm16,64h16v8H88ZM56,480V464a8,8,0,0,0-16,0v16H24V456a24.028,24.028,0,0,1,24-24h96a24.016,24.016,0,0,1,8.46,1.531A40.094,40.094,0,0,0,152,439.6V464a8,8,0,0,0-16,0v16Zm432,0H472V464a8,8,0,0,0-16,0v16H376V464a8,8,0,0,0-16,0V439.6a40.084,40.084,0,0,0-.46-6.069A23.993,23.993,0,0,1,368,432h96a24.028,24.028,0,0,1,24,24Z"/><path d="M256,224A104,104,0,1,0,152,120,104.118,104.118,0,0,0,256,224Zm0-192a88,88,0,1,1-88,88A88.1,88.1,0,0,1,256,32Z"/><path d="M232.232,162.625a8,8,0,0,0,10.309.852l74.111-52.968a8,8,0,1,0-9.3-13.018l-68.6,49.027-19.207-19.206a8,8,0,0,0-11.313,11.313Z"/></g></svg>
