<svg height="512" viewBox="0 0 64 64" width="512" xmlns="http://www.w3.org/2000/svg"><g id="Delivery_Truck" data-name="Delivery Truck"><path d="m16 43a3 3 0 1 0 3 3 3 3 0 0 0 -3-3zm0 4a1 1 0 1 1 1-1 1 1 0 0 1 -1 1z"/><path d="m50 43a3 3 0 1 0 3 3 3 3 0 0 0 -3-3zm0 4a1 1 0 1 1 1-1 1 1 0 0 1 -1 1z"/><path d="m61 42v-8a1 1 0 0 0 -.38-.78l-5-4a.977.977 0 0 0 -.62-.22h-1.18l-2.16-11.05a5.035 5.035 0 0 0 -4.89-3.95h-5.77a1 1 0 0 0 -1-1h-37a1 1 0 0 0 -1 1v29a1 1 0 0 0 1 1h2v2a1 1 0 0 0 1 1h3.08a6.991 6.991 0 0 0 13.84 0h20.16a6.991 6.991 0 0 0 13.84 0h4.08a1 1 0 0 0 1-1v-3a1 1 0 0 0 -1-1zm-20-26h5.77a3.018 3.018 0 0 1 2.93 2.35l2.09 10.65h-10.79zm-31.92 29h-2.08v-1h2.29a8.053 8.053 0 0 0 -.21 1zm6.92 6a5 5 0 1 1 5-5 5 5 0 0 1 -5 5zm0-12a7.01 7.01 0 0 0 -5.74 3h-6.26v-27h35v27h-17.26a7.01 7.01 0 0 0 -5.74-3zm27.08 6h-20.16a8.053 8.053 0 0 0 -.21-1h20.59a5.764 5.764 0 0 0 -.22 1zm6.92 6a5 5 0 0 1 -5-5 4.865 4.865 0 0 1 .67-2.49c0-.01 0-.01.01-.01a4.982 4.982 0 0 1 8.64 0c.01 0 .01 0 .01.01a4.865 4.865 0 0 1 .67 2.49 5 5 0 0 1 -5 5zm0-12a7.031 7.031 0 0 0 -5.74 3h-3.26v-11h13.65l4.35 3.48v7.52h-3.26a7.031 7.031 0 0 0 -5.74-3zm10 6h-3.08a5.764 5.764 0 0 0 -.22-1h3.3z"/><path d="m19 28h17a1 1 0 0 0 1-1v-8a1 1 0 0 0 -1-1h-17a1 1 0 0 0 -1 1v8a1 1 0 0 0 1 1zm1-8h15v6h-15z"/><path d="m7 18h8v2h-8z"/><path d="m9 22h6v2h-6z"/><path d="m11 26h4v2h-4z"/></g></svg>